<?xml version="1.0" standalone="no"?>
<!DOCTYPE svg PUBLIC "-//W3C//DTD SVG 20010904//EN"
 "http://www.w3.org/TR/2001/REC-SVG-20010904/DTD/svg10.dtd">
<svg version="1.0" xmlns="http://www.w3.org/2000/svg"
 width="128.000000pt" height="128.000000pt" viewBox="0 0 128.000000 128.000000"
 preserveAspectRatio="xMidYMid meet">

<g transform="translate(0.000000,128.000000) scale(0.100000,-0.100000)"
fill="#000000" stroke="none">
<path d="M1005 1270 c-11 -5 -127 -9 -258 -9 -222 -1 -238 -2 -235 -18 3 -16
23 -18 216 -21 l212 -2 0 -526 0 -525 -364 3 -364 3 -27 25 c-54 50 -55 56
-55 497 0 379 2 411 19 450 11 23 30 47 43 55 14 8 71 15 148 18 102 4 125 8
125 20 0 13 -21 15 -132 15 -117 0 -135 -2 -159 -21 -40 -29 -64 -65 -74 -110
-14 -59 -13 -805 1 -860 7 -27 26 -60 45 -81 25 -26 34 -45 34 -69 0 -18 5
-45 12 -59 24 -54 33 -55 473 -55 455 0 455 0 497 69 23 36 23 39 26 461 1
238 -2 431 -7 439 -27 42 -31 -8 -31 -377 l0 -377 -85 0 -85 0 0 501 0 501 25
11 c36 17 97 15 123 -4 20 -14 22 -23 22 -110 0 -86 2 -95 18 -92 14 3 17 17
20 89 1 47 -2 97 -7 111 -17 46 -117 73 -176 48z m129 -1106 c19 -19 19 -17 2
-58 -28 -68 -16 -66 -473 -66 l-412 0 -15 22 c-9 12 -16 33 -16 45 l0 23 371
0 372 0 23 25 c19 21 32 25 78 25 36 0 60 -5 70 -16z"/>
<path d="M243 1175 c-18 -8 -42 -29 -53 -47 -18 -30 -20 -50 -20 -254 0 -324
-13 -313 360 -313 138 -1 261 4 282 9 20 6 48 24 62 41 l26 31 0 233 0 233
-26 31 c-14 17 -42 35 -62 41 -59 16 -530 12 -569 -5z m143 -46 c-51 -40 -79
-104 -84 -193 -5 -98 9 -155 50 -202 27 -31 29 -38 19 -60 -6 -14 -11 -37 -11
-51 0 -25 -2 -25 -50 -21 -34 4 -59 13 -75 28 l-25 23 0 221 c1 158 4 225 13
237 22 29 52 38 121 39 l69 0 -27 -21z m429 11 c46 -17 55 -60 55 -257 0 -204
-8 -246 -50 -268 -35 -18 -79 -20 -84 -2 -2 6 -9 29 -15 49 -11 34 -10 40 10
60 42 44 59 97 59 188 0 97 -20 153 -73 208 l-31 32 51 0 c29 0 63 -4 78 -10z
m-167 -21 c47 -23 86 -74 97 -126 9 -43 -8 -43 -63 -3 -48 34 -72 31 -72 -11
0 -27 -2 -29 -27 -23 -41 10 -95 39 -116 62 -14 15 -16 24 -7 46 32 82 25 76
87 76 37 0 72 -7 101 -21z m-176 -159 c24 -17 69 -36 102 -42 54 -12 59 -11
75 8 16 20 17 20 59 2 39 -18 42 -21 42 -59 0 -72 -50 -143 -122 -174 -124
-51 -271 31 -285 159 -5 43 -3 48 38 90 24 24 45 44 46 45 1 1 22 -13 45 -29z
m-12 -305 c54 -19 116 -19 170 0 50 18 60 13 60 -26 l0 -29 -145 0 c-136 0
-145 1 -145 19 0 19 9 51 15 51 1 0 22 -7 45 -15z"/>
<path d="M374 886 c-9 -23 0 -51 16 -51 10 0 15 10 15 29 0 32 -21 47 -31 22z"/>
<path d="M684 886 c-9 -23 0 -51 16 -51 10 0 15 10 15 29 0 32 -21 47 -31 22z"/>
<path d="M490 850 c0 -13 10 -24 26 -30 36 -14 49 -13 75 9 33 27 15 48 -25
30 -20 -10 -29 -10 -38 -1 -19 19 -38 14 -38 -8z"/>
<path d="M212 473 c3 -16 20 -18 183 -18 163 0 180 2 183 18 3 16 -11 17 -183
17 -172 0 -186 -1 -183 -17z"/>
<path d="M644 479 c-14 -23 17 -30 132 -27 104 3 119 5 122 21 3 15 -8 17
-122 17 -79 0 -127 -4 -132 -11z"/>
<path d="M210 395 c0 -13 27 -15 185 -15 158 0 185 2 185 15 0 13 -27 15 -185
15 -158 0 -185 -2 -185 -15z"/>
<path d="M640 395 c0 -13 21 -15 130 -15 109 0 130 2 130 15 0 13 -21 15 -130
15 -109 0 -130 -2 -130 -15z"/>
<path d="M210 320 c0 -19 7 -20 185 -20 178 0 185 1 185 20 0 19 -7 20 -185
20 -178 0 -185 -1 -185 -20z"/>
<path d="M645 330 c-15 -24 12 -30 131 -30 117 0 124 1 124 20 0 19 -7 20
-124 20 -73 0 -127 -4 -131 -10z"/>
</g>
</svg>
