<?xml version="1.0" standalone="no"?>
<!DOCTYPE svg PUBLIC "-//W3C//DTD SVG 20010904//EN"
 "http://www.w3.org/TR/2001/REC-SVG-20010904/DTD/svg10.dtd">
<svg version="1.0" xmlns="http://www.w3.org/2000/svg"
 width="128.000000pt" height="128.000000pt" viewBox="0 0 128.000000 128.000000"
 preserveAspectRatio="xMidYMid meet">

<g transform="translate(0.000000,128.000000) scale(0.100000,-0.100000)"
fill="#000000" stroke="none">
<path d="M209 1265 c-61 -33 -59 -11 -59 -621 0 -501 2 -559 17 -584 32 -55
32 -55 477 -55 379 0 413 1 437 18 15 10 32 30 37 45 16 41 23 1087 8 1132 -6
20 -25 44 -45 57 l-34 23 -406 0 c-331 -1 -411 -3 -432 -15z m682 -124 c10
-13 19 -18 19 -11 0 6 10 10 23 8 21 -3 22 -7 25 -124 2 -101 0 -123 -14 -134
-13 -11 -19 -11 -36 -1 -15 9 -23 10 -31 2 -7 -7 -104 -11 -292 -11 -226 0
-285 3 -300 14 -17 12 -20 30 -23 129 l-4 114 28 22 c27 22 32 22 307 19 l279
-3 19 -24z m-464 -587 c15 -24 15 -29 2 -53 -14 -24 -20 -26 -79 -26 -59 0
-66 2 -79 26 -9 16 -11 36 -7 52 6 26 9 27 76 27 64 0 71 -2 87 -26z m225 9
c22 -20 23 -51 1 -75 -19 -21 -121 -26 -141 -6 -7 7 -12 31 -12 55 l0 43 67 0
c48 0 72 -5 85 -17z m232 1 c9 -8 16 -26 16 -39 0 -13 -7 -31 -16 -39 -21 -22
-117 -22 -138 0 -16 15 -22 75 -9 87 14 15 131 7 147 -9z m-464 -174 c27 -27
25 -55 -6 -79 -40 -32 -106 -29 -133 5 -23 30 -27 64 -9 82 7 7 38 12 70 12
45 0 63 -5 78 -20z m228 4 c25 -17 29 -51 9 -78 -19 -26 -99 -33 -132 -12 -19
13 -25 25 -25 55 0 21 3 41 7 44 13 14 118 7 141 -9z m183 -5 c35 -35 6 -99
-45 -99 -48 0 -73 64 -39 102 22 24 58 23 84 -3z m-412 -173 c26 -24 27 -50 1
-76 -30 -30 -123 -29 -144 2 -20 28 -20 62 -2 81 22 22 119 17 145 -7z m188
18 c59 -9 82 -57 46 -96 -21 -24 -114 -25 -137 -2 -18 17 -22 90 -6 96 20 6
66 8 97 2z"/>
<path d="M743 1042 c-17 -11 -14 -100 4 -106 9 -4 21 -2 27 3 7 6 18 6 25 1
26 -16 39 0 39 50 0 50 -13 66 -38 50 -8 -5 -21 -5 -30 0 -9 5 -21 6 -27 2z"/>
<path d="M390 974 c-11 -12 -10 -18 3 -32 16 -15 18 -15 34 0 13 14 14 20 3
32 -7 9 -16 16 -20 16 -4 0 -13 -7 -20 -16z"/>
<path d="M507 984 c-12 -12 -8 -42 6 -47 21 -8 39 8 35 29 -3 19 -29 30 -41
18z"/>
<path d="M620 974 c-11 -12 -10 -18 3 -32 16 -15 18 -15 34 0 13 14 14 20 3
32 -7 9 -16 16 -20 16 -4 0 -13 -7 -20 -16z"/>
</g>
</svg>
