<?xml version="1.0" standalone="no"?>
<!DOCTYPE svg PUBLIC "-//W3C//DTD SVG 20010904//EN"
 "http://www.w3.org/TR/2001/REC-SVG-20010904/DTD/svg10.dtd">
<svg version="1.0" xmlns="http://www.w3.org/2000/svg"
 width="128.000000pt" height="128.000000pt" viewBox="0 0 128.000000 128.000000"
 preserveAspectRatio="xMidYMid meet">

<g transform="translate(0.000000,128.000000) scale(0.100000,-0.100000)"
fill="#000000" stroke="none">
<path d="M980 1210 c-24 -24 -25 -48 -4 -78 19 -27 64 -29 87 -4 53 58 -28
137 -83 82z m50 -40 c0 -5 -5 -10 -11 -10 -5 0 -7 5 -4 10 3 6 8 10 11 10 2 0
4 -4 4 -10z"/>
<path d="M549 1194 c-9 -11 -9 -18 -1 -26 14 -14 42 -3 42 16 0 20 -27 27 -41
10z"/>
<path d="M124 1169 c-10 -17 23 -46 37 -32 7 7 9 19 6 27 -7 18 -33 21 -43 5z"/>
<path d="M814 1169 c-10 -17 23 -46 37 -32 7 7 9 19 6 27 -7 18 -33 21 -43 5z"/>
<path d="M283 1153 c-8 -3 -13 -23 -13 -48 l0 -44 -82 -3 -83 -3 -3 -178 c-2
-155 0 -178 13 -184 9 -3 29 4 45 16 16 11 32 21 35 21 3 0 5 -58 5 -130 0
-124 -1 -130 -20 -130 -39 0 -90 -29 -110 -62 -26 -42 -25 -91 1 -145 23 -48
182 -203 209 -203 9 0 25 9 35 20 18 19 31 20 450 20 359 0 434 2 438 14 8 20
-13 36 -44 36 l-28 0 -1 290 c0 160 2 290 6 290 3 0 19 -9 35 -21 56 -40 60
-29 57 168 l-3 178 -115 0 c-108 0 -115 -1 -115 -20 0 -18 8 -20 93 -23 l92
-3 0 -119 c0 -66 -2 -120 -4 -120 -2 0 -111 81 -242 181 -135 102 -245 178
-254 176 -8 -2 -131 -85 -272 -185 l-258 -181 0 124 0 124 83 3 82 3 3 48 c4
61 25 58 32 -4 5 -44 5 -44 45 -44 30 0 41 4 43 18 3 12 -4 20 -17 24 -15 4
-21 13 -21 35 0 51 -16 68 -63 67 -23 0 -48 -3 -54 -6z m604 -229 l193 -147 0
-278 0 -279 -96 0 c-93 0 -95 -1 -92 -23 3 -21 8 -22 96 -25 136 -4 114 -22
-27 -22 l-120 0 -3 42 c-2 33 -8 45 -25 53 -21 9 -23 16 -25 150 l-3 140 -120
0 -120 0 -3 -140 c-2 -134 -4 -141 -25 -150 -17 -8 -23 -20 -25 -53 l-3 -42
-46 0 -45 0 35 39 c62 69 86 136 67 187 -17 43 -59 83 -96 90 -39 7 -100 -11
-113 -34 -8 -14 -12 -14 -25 -3 -14 12 -16 37 -14 179 l3 166 210 148 c116 81
214 148 219 148 6 0 97 -66 203 -146z"/>
<path d="M604 926 c-28 -28 -34 -42 -34 -76 0 -34 6 -48 34 -76 56 -56 135
-44 171 26 19 37 19 63 0 100 -18 35 -62 60 -106 60 -22 0 -41 -10 -65 -34z
m116 -36 c11 -11 20 -29 20 -40 0 -26 -34 -60 -62 -60 -53 0 -79 74 -36 104
30 21 54 20 78 -4z"/>
<path d="M627 684 c-4 -4 -7 -16 -7 -26 0 -16 6 -19 43 -16 34 2 42 7 42 23 0
16 -8 21 -35 23 -20 2 -39 0 -43 -4z"/>
<path d="M282 658 c-7 -7 -12 -42 -12 -85 0 -59 3 -75 16 -80 10 -4 22 1 29
10 16 22 63 22 87 0 14 -13 21 -14 30 -5 16 16 11 154 -5 164 -19 12 -132 9
-145 -4z m108 -68 c0 -16 -7 -20 -35 -20 -28 0 -35 4 -35 20 0 16 7 20 35 20
28 0 35 -4 35 -20z"/>
<path d="M852 662 c-9 -6 -13 -38 -13 -108 -1 -75 -5 -103 -16 -116 -13 -15
-13 -20 -3 -33 10 -13 32 -15 109 -13 91 3 96 4 99 26 2 12 -1 22 -7 22 -7 0
-11 37 -11 103 0 67 -4 107 -12 115 -14 14 -126 16 -146 4z m108 -72 c0 -16
-7 -20 -35 -20 -28 0 -35 4 -35 20 0 16 7 20 35 20 28 0 35 -4 35 -20z m0
-110 c0 -39 -1 -40 -35 -40 -34 0 -35 1 -35 40 0 39 1 40 35 40 34 0 35 -1 35
-40z"/>
<path d="M550 605 c-23 -28 0 -35 115 -35 115 0 138 7 115 35 -10 11 -37 15
-115 15 -78 0 -105 -4 -115 -15z"/>
<path d="M1167 1153 c-15 -14 -7 -43 12 -43 23 0 34 23 18 39 -13 13 -21 14
-30 4z"/>
<path d="M914 1045 c-4 -9 -2 -21 4 -27 15 -15 44 -1 40 19 -4 23 -36 29 -44
8z"/>
</g>
</svg>
