<?xml version="1.0" standalone="no"?>
<!DOCTYPE svg PUBLIC "-//W3C//DTD SVG 20010904//EN"
 "http://www.w3.org/TR/2001/REC-SVG-20010904/DTD/svg10.dtd">
<svg version="1.0" xmlns="http://www.w3.org/2000/svg"
 width="108.000000pt" height="108.000000pt" viewBox="0 0 108.000000 108.000000"
 preserveAspectRatio="xMidYMid meet">

<g transform="translate(0.000000,108.000000) scale(0.100000,-0.100000)"
fill="#000000" stroke="none">
<path d="M165 1048 c-2 -7 -5 -26 -7 -43 -3 -29 -5 -30 -62 -35 -101 -9 -96
18 -96 -477 l0 -424 25 -24 24 -25 495 0 495 0 20 26 c12 15 21 38 21 53 -1
14 -29 207 -64 429 -47 308 -66 406 -79 420 -12 12 -40 19 -90 22 l-72 5 -5
40 c-5 36 -8 40 -36 43 -36 4 -51 -11 -56 -53 l-3 -30 -80 0 c-72 0 -80 2 -83
20 -9 62 -11 65 -47 65 -36 0 -38 -3 -47 -65 -3 -18 -11 -20 -83 -20 l-80 0
-3 30 c-5 41 -19 55 -54 55 -16 0 -31 -6 -33 -12z m755 -368 c0 -6 -83 -11
-215 -12 -289 -4 -287 -21 2 -28 l218 -5 3 -132 c2 -109 5 -133 17 -133 12 0
15 22 16 128 1 70 3 120 5 112 2 -8 22 -127 43 -265 35 -223 38 -252 25 -272
-10 -16 -24 -23 -47 -23 l-32 0 0 135 c0 170 -19 185 -23 18 -2 -91 -6 -121
-19 -135 -15 -17 -45 -18 -434 -18 l-419 0 -15 23 c-13 20 -15 65 -13 293 l3
269 203 5 c267 7 273 23 10 30 -350 9 -223 20 230 20 282 0 442 -4 442 -10z"/>
<path d="M295 550 c-12 -19 10 -32 46 -28 48 4 46 32 -3 36 -20 2 -39 -2 -43
-8z"/>
<path d="M445 550 c-11 -18 10 -32 41 -28 40 4 38 32 -3 36 -17 2 -34 -2 -38
-8z"/>
<path d="M585 550 c-12 -19 10 -32 46 -28 48 4 46 32 -3 36 -20 2 -39 -2 -43
-8z"/>
<path d="M735 550 c-11 -18 10 -32 41 -28 40 4 38 32 -3 36 -17 2 -34 -2 -38
-8z"/>
<path d="M150 415 c0 -11 11 -15 40 -15 29 0 40 4 40 15 0 11 -11 15 -40 15
-29 0 -40 -4 -40 -15z"/>
<path d="M295 420 c-3 -5 0 -13 9 -16 21 -8 71 -1 71 11 0 14 -72 19 -80 5z"/>
<path d="M440 415 c0 -11 11 -15 40 -15 29 0 40 4 40 15 0 11 -11 15 -40 15
-29 0 -40 -4 -40 -15z"/>
<path d="M585 420 c-3 -5 0 -13 9 -16 21 -8 71 -1 71 11 0 14 -72 19 -80 5z"/>
<path d="M730 415 c0 -11 11 -15 40 -15 29 0 40 4 40 15 0 11 -11 15 -40 15
-29 0 -40 -4 -40 -15z"/>
<path d="M150 285 c0 -11 11 -15 40 -15 29 0 40 4 40 15 0 11 -11 15 -40 15
-29 0 -40 -4 -40 -15z"/>
<path d="M295 290 c-3 -5 0 -13 9 -16 21 -8 71 -1 71 11 0 14 -72 19 -80 5z"/>
<path d="M440 285 c0 -11 11 -15 40 -15 29 0 40 4 40 15 0 11 -11 15 -40 15
-29 0 -40 -4 -40 -15z"/>
<path d="M585 290 c-3 -5 0 -13 9 -16 21 -8 71 -1 71 11 0 14 -72 19 -80 5z"/>
<path d="M730 285 c0 -11 11 -15 40 -15 29 0 40 4 40 15 0 11 -11 15 -40 15
-29 0 -40 -4 -40 -15z"/>
<path d="M150 155 c0 -11 11 -15 40 -15 29 0 40 4 40 15 0 11 -11 15 -40 15
-29 0 -40 -4 -40 -15z"/>
<path d="M295 160 c-3 -5 0 -13 9 -16 21 -8 71 -1 71 11 0 14 -72 19 -80 5z"/>
<path d="M440 155 c0 -11 11 -15 40 -15 29 0 40 4 40 15 0 11 -11 15 -40 15
-29 0 -40 -4 -40 -15z"/>
<path d="M585 160 c-3 -5 0 -13 9 -16 21 -8 71 -1 71 11 0 14 -72 19 -80 5z"/>
</g>
</svg>
